<svg height="199.204768" viewBox="0 0 16.538403 6.5752027" width="501.996016" xmlns="http://www.w3.org/2000/svg"><g transform="translate(44.554918 -343.605258)"><path d="m-32.276307 346.79228c.132292-.10584.264583-.29105.3175-.52917.05292-.29104.02646-.47625-.05292-.74083v-1.32292h-.635s-.820208-.0794-.978958.23812v-.23812h-.264583s-1.296459-.10583-1.640417.71437l-.449792-.97895-.396875.8202-.396875-.79375-.582083 1.13771-.714375-1.32291-.740833 1.34937c-.05292-.42333-.370417-.89958-1.11125-.89958-1.084792 0-1.243542.76729-1.243542 1.48166 0 .34396.07938.74084.343958 1.00542h-3.571875l1.243542 2.77813h1.508125l.264583-.58209c.264584.39688.714375.68792 1.243542.68792.291042 0 .555625-.0794.79375-.23813v.15875h4.259792s.185208.0265.238125-.10583v.10583h2.2225v-.15875c.238125.15875.529166.26459.820208.26459s.582083-.10584.79375-.26459v.66146l1.349375-.58208v-.71438c.238125-.0794.740833-.3175.740833-.92604 0-.92604-.608542-1.05833-1.005417-1.05833h-1.084791v.15875c-.238125-.15875-.502708-.23813-.79375-.23813-.15875 0-.3175.0529-.47625.1323z" style="clip-rule:evenodd;fill:#1a1a18;fill-rule:evenodd;stroke:#1a1a18;stroke-width:.036804;stroke-miterlimit:3.8637"/><path d="m-30.821099 349.67623v-2.75166h.714375s.9525-.10584.9525.84666c0 .66146-.714375.7673-.714375.7673v.74083z" fill="#e2000f" stroke-width=".264583"/><path d="m-30.821099 349.67623v-2.75166h.714375s.9525-.10584.9525.84666c0 .66146-.714375.7673-.714375.7673v.74083z" fill="none" stroke="#e2000f" stroke-miterlimit="2.9238" stroke-width=".064558"/><path d="m-30.582974 347.16269v2.19604l.47625-.1852v-.79375s.714375-.0265.714375-.58209c0-.58208-.502708-.60854-.502708-.60854h-.687917z" fill="#ffec00" stroke-width=".264583"/><path d="m-30.582974 347.16269v2.19604l.47625-.1852v-.79375s.714375-.0265.714375-.58209c0-.58208-.502708-.60854-.502708-.60854h-.687917z" fill="none" stroke="#e2000f" stroke-miterlimit="2.9238" stroke-width=".064558"/><path d="m-30.821099 349.67623v-2.75166h.714375s.3175-.0265.3175.10583c0 .13229-.07937.13229-.07937.13229h-.714375v2.19604z" fill="#fff" stroke-width=".264583"/><path d="m-30.821099 349.67623v-2.75166h.714375s.3175-.0265.3175.10583c0 .13229-.07937.13229-.07937.13229h-.714375v2.19604z" fill="none" stroke="#e2000f" stroke-miterlimit="2.9238" stroke-width=".064558"/><path d="m-30.106724 347.58603s.238125-.0529.238125.15875c0 .21166-.238125.15875-.238125.15875z" fill="#e2000f" stroke-width=".264583"/><path d="m-30.106724 347.58603s.238125-.0529.238125.15875c0 .21166-.238125.15875-.238125.15875z" fill="none" stroke="#e2000f" stroke-miterlimit="2.9238" stroke-width=".064558"/><path d="m43.8 12.1h-3.3v2.5h-.4v-2.5h-3.3v8.9h3.3v-2.7h.4v2.7h3.3z" fill="#e2000f" transform="matrix(.26458333 0 0 .26458333 -44.420682 343.72311)"/><path d="m43.8 12.1h-3.3v2.5h-.4v-2.5h-3.3v8.9h3.3v-2.7h.4v2.7h3.3z" fill="none" stroke="#e2000f" stroke-miterlimit="2.9238" stroke-width=".244" transform="matrix(.26458333 0 0 .26458333 -44.420682 343.72311)"/><path d="m42.9 13h-1.5v2.5h-2.2v-2.5h-1.6v7.1h1.6v-2.7h2.2v2.7h1.5z" fill="#ffec00" transform="matrix(.26458333 0 0 .26458333 -44.420682 343.72311)"/><path d="m42.9 13h-1.5v2.5h-2.2v-2.5h-1.6v7.1h1.6v-2.7h2.2v2.7h1.5z" fill="none" stroke="#e2000f" stroke-miterlimit="2.9238" stroke-width=".244" transform="matrix(.26458333 0 0 .26458333 -44.420682 343.72311)"/><path d="m39.2 13h-1.6v7.1l-.8.9v-8.9h3.3z" fill="#fff" transform="matrix(.26458333 0 0 .26458333 -44.420682 343.72311)"/><path d="m39.2 13h-1.6v7.1l-.8.9v-8.9h3.3z" fill="none" stroke="#e2000f" stroke-miterlimit="2.9238" stroke-width=".244" transform="matrix(.26458333 0 0 .26458333 -44.420682 343.72311)"/><path d="m40.5 12.1h3.3l-.9.9h-1.5v2.5h-2.2l.9-.9h.4z" fill="#fff" transform="matrix(.26458333 0 0 .26458333 -44.420682 343.72311)"/><path d="m40.5 12.1h3.3l-.9.9h-1.5v2.5h-2.2l.9-.9h.4z" fill="none" stroke="#e2000f" stroke-miterlimit="2.9238" stroke-width=".244" transform="matrix(.26458333 0 0 .26458333 -44.420682 343.72311)"/><path d="m41.4 20.1v-2.7l-.9.9v2.7z" fill="#fff" transform="matrix(.26458333 0 0 .26458333 -44.420682 343.72311)"/><path d="m41.4 20.1v-2.7l-.9.9v2.7z" fill="none" stroke="#e2000f" stroke-miterlimit="2.9238" stroke-width=".244" transform="matrix(.26458333 0 0 .26458333 -44.420682 343.72311)"/><path clip-rule="evenodd" d="m-36.245057 349.27936h.9525s.820208 0 .820208-.84667c0-.29104-.105833-.47625-.238125-.60854l.370417-.89958h-.9525s-.740833 0-.740833.84666c0 .26459.07937.42334.185208.55563h-.396875z" fill="#e2000f" fill-rule="evenodd" stroke-width=".264583"/><path d="m-36.245057 349.27936h.9525s.820208 0 .820208-.84667c0-.29104-.105833-.47625-.238125-.60854l.370417-.89958h-.9525s-.740833 0-.740833.84666c0 .26459.07937.42334.185208.55563h-.396875z" fill="none" stroke="#e2000f" stroke-miterlimit="2.9238" stroke-width=".064558"/><path clip-rule="evenodd" d="m-35.054432 347.82415c-.05292 0-.105833-.0529-.105833-.10583 0-.0529.05292-.10584.105833-.10584h.185208l.185209-.44979h-.608542s-.502708 0-.502708.60854c0 .42334.238125.52917.396875.55563.05292 0 .105833.0529.105833.10583 0 .0529-.05292.10584-.105833.10584h-.846667l.238125.5027h.714375s.582083 0 .582083-.60854c0-.37041-.211666-.52916-.370416-.60854z" fill="#ffec00" fill-rule="evenodd" stroke-width=".264583"/><path d="m-35.054432 347.82415c-.05292 0-.105833-.0529-.105833-.10583 0-.0529.05292-.10584.105833-.10584h.185208l.185209-.44979h-.608542s-.502708 0-.502708.60854c0 .42334.238125.52917.396875.55563.05292 0 .105833.0529.105833.10583 0 .0529-.05292.10584-.105833.10584h-.846667l.238125.5027h.714375s.582083 0 .582083-.60854c0-.37041-.211666-.52916-.370416-.60854z" fill="none" stroke="#e2000f" stroke-miterlimit="2.9238" stroke-width=".064558"/><path clip-rule="evenodd" d="m-36.245057 348.56498.238125.50271-.238125.21167v-.9525h.396875c.15875.15875.343958.21167.47625.23812z" fill="#fff" fill-rule="evenodd" stroke-width=".264583"/><path d="m-36.245057 348.56498.238125.50271-.238125.21167v-.9525h.396875c.15875.15875.343958.21167.47625.23812z" fill="none" stroke="#e2000f" stroke-miterlimit="2.9238" stroke-width=".064558"/><path clip-rule="evenodd" d="m-35.71589 348.11519c-.05292-.0794-.07937-.21166-.07937-.37041 0-.66146.635-.60855.502708-.60855-.105833 0 .608542 0 .608542 0l.343958-.23812h-.9525s-.740833 0-.740833.84667c0 .21166.05292.37041.132291.47625.02646.0265.05292.0529.105834.0529.05292 0 .105833-.0529.105833-.10583 0 0-.02646-.0265-.02646-.0529z" fill="#fff" fill-rule="evenodd" stroke-width=".264583"/><path d="m-35.71589 348.11519c-.05292-.0794-.07937-.21166-.07937-.37041 0-.66146.635-.60855.502708-.60855-.105833 0 .608542 0 .608542 0l.343958-.23812h-.9525s-.740833 0-.740833.84667c0 .21166.05292.37041.132291.47625.02646.0265.05292.0529.105834.0529.05292 0 .105833-.0529.105833-.10583 0 0-.02646-.0265-.02646-.0529z" fill="none" stroke="#e2000f" stroke-miterlimit="2.9238" stroke-width=".064558"/><path d="m8 21h1.8l3.8-8.9h-4.8v1.2l-1.2-1.2-1.1 1.1v-1.1h-4.9l3.8 8.9h1.8l.4-.9z" fill="#e2000f" transform="matrix(.26458333 0 0 .26458333 -44.420682 343.72311)"/><path d="m-42.409849 346.92457-.291041.29104v-.29104h-1.296459l1.005417 2.35479h.47625l.105833-.23813.105834.23813h.47625l1.005416-2.35479h-1.27v.3175zm-1.243541.23812.79375 1.87854" fill="none" stroke="#e2000f" stroke-miterlimit="2.9238" stroke-width=".064558"/><path d="m9.3 20.1h-.8l-.9-1.8-.9 1.8h-.8l-3-7.1h2.5v2.9l2.2-2.3 2.2 2.3v-2.9h2.5z" fill="#ffec00" transform="matrix(.26458333 0 0 .26458333 -44.420682 343.72311)"/><path d="m9.3 20.1h-.8l-.9-1.8-.9 1.8h-.8l-3-7.1h2.5v2.9l2.2-2.3 2.2 2.3v-2.9h2.5z" fill="none" stroke="#e2000f" stroke-miterlimit="2.9238" stroke-width=".244" transform="matrix(.26458333 0 0 .26458333 -44.420682 343.72311)"/><path d="m6.5 12.1h-4.9l3.8 8.9.5-.9-3-7.1h2.5z" fill="#fff" transform="matrix(.26458333 0 0 .26458333 -44.420682 343.72311)"/><path d="m6.5 12.1h-4.9l3.8 8.9.5-.9-3-7.1h2.5z" fill="none" stroke="#e2000f" stroke-miterlimit="2.9238" stroke-width=".244" transform="matrix(.26458333 0 0 .26458333 -44.420682 343.72311)"/><path d="m6.5 13.2 1.1-1.1v1.5l-2.2 2.3z" fill="#fff" transform="matrix(.26458333 0 0 .26458333 -44.420682 343.72311)"/><path d="m6.5 13.2 1.1-1.1v1.5l-2.2 2.3z" fill="none" stroke="#e2000f" stroke-miterlimit="2.9238" stroke-width=".244" transform="matrix(.26458333 0 0 .26458333 -44.420682 343.72311)"/><path d="m8.8 12.1v1.2l1 2.6v-2.9h2.5l1.3-.9z" fill="#fff" transform="matrix(.26458333 0 0 .26458333 -44.420682 343.72311)"/><path d="m8.8 12.1v1.2l1 2.6v-2.9h2.5l1.3-.9z" fill="none" stroke="#e2000f" stroke-miterlimit="2.9238" stroke-width=".244" transform="matrix(.26458333 0 0 .26458333 -44.420682 343.72311)"/><path d="m-38.917349 345.4429h-.05292s-.07937-1.00542-.9525-1.00542c-.899584 0-.978959.71438-.978959 1.24355 0 .5027.211667 1.11125.978959 1.11125h1.005416z" fill="#e2000f" stroke-width=".264583"/><path d="m-38.917349 345.4429h-.05292s-.07937-1.00542-.9525-1.00542c-.899584 0-.978959.71438-.978959 1.24355 0 .5027.211667 1.11125.978959 1.11125h1.005416z" fill="none" stroke="#e2000f" stroke-miterlimit="2.9238" stroke-width=".064558"/><path d="m-39.155474 346.58061h-.767291s-.740834.10583-.740834-.89958c0-1.00542.502709-1.00542.740834-1.00542.264583 0 .714375.26458.714375.76729h-.47625s0-.23812-.264584-.23812c-.264583 0-.211666.23812-.211666.23812v.39688s-.05292.23812.211666.23812h.343959v-.23812h-.105834v-.15875h.502709v.89958z" fill="#ffec00" stroke-width=".264583"/><path d="m-39.155474 346.58061h-.767291s-.740834.10583-.740834-.89958c0-1.00542.502709-1.00542.740834-1.00542.264583 0 .714375.26458.714375.76729h-.47625s0-.23812-.264584-.23812c-.264583 0-.211666.23812-.211666.23812v.39688s-.05292.23812.211666.23812h.343959v-.23812h-.105834v-.15875h.502709v.89958z" fill="none" stroke="#e2000f" stroke-miterlimit="2.9238" stroke-width=".064558"/><path clip-rule="evenodd" d="m-39.155474 345.68103.185209-.23813h-.9525v.39688s-.02646.23812.343958.23812v-.23812h-.105833v-.15875z" fill="#fff" fill-rule="evenodd" stroke-width=".264583"/><path d="m-39.155474 345.68103.185209-.23813h-.9525v.39688s-.02646.23812.343958.23812v-.23812h-.105833v-.15875z" fill="none" stroke="#e2000f" stroke-miterlimit="2.9238" stroke-width=".064558"/><path d="m-40.504849 346.31603c.02646.0529.02646.13229-.02646.15875-.05292.0265-.132292.0265-.15875-.0265-.15875-.21167-.211667-.50271-.211667-.76729 0-.50271.105834-1.24355.978959-1.24355.132291 0 .264583.0265.343958.0794.05292.0265.07937.10583.05292.15875-.02646.0529-.07938.0794-.15875.0529-.105834-.0529-.185209-.0529-.264584-.0529-.264583 0-.740833 0-.740833 1.00542 0 .29104.07938.5027.185208.635z" fill="#fff" stroke-width=".264583"/><path d="m-40.504849 346.31603c.02646.0529.02646.13229-.02646.15875-.05292.0265-.132292.0265-.15875-.0265-.15875-.21167-.211667-.50271-.211667-.76729 0-.50271.105834-1.24355.978959-1.24355.132291 0 .264583.0265.343958.0794.05292.0265.07937.10583.05292.15875-.02646.0529-.07938.0794-.15875.0529-.105834-.0529-.185209-.0529-.264584-.0529-.264583 0-.740833 0-.740833 1.00542 0 .29104.07938.5027.185208.635z" fill="none" stroke="#e2000f" stroke-miterlimit="2.9238" stroke-width=".064558"/><path d="m28.9 11.6h-9.7l1.4-.8 3.4-6.8v-1.9z" fill="#e2000f" transform="matrix(.26458333 0 0 .26458333 -44.420682 343.72311)"/><path d="m28.9 11.6h-9.7l1.4-.8 3.4-6.8v-1.9z" fill="none" stroke="#e2000f" stroke-miterlimit="2.9238" stroke-width=".244" transform="matrix(.26458333 0 0 .26458333 -44.420682 343.72311)"/><path d="m24 4 3.4 6.8h-6.8z" fill="#ffec00" transform="matrix(.26458333 0 0 .26458333 -44.420682 343.72311)"/><path d="m24 4 3.4 6.8h-6.8z" fill="none" stroke="#e2000f" stroke-miterlimit="2.9238" stroke-width=".244" transform="matrix(.26458333 0 0 .26458333 -44.420682 343.72311)"/><path d="m24 2.1-4.8 9.5 1.4-.8 3.4-6.8z" fill="#fff" transform="matrix(.26458333 0 0 .26458333 -44.420682 343.72311)"/><path d="m24 2.1-4.8 9.5 1.4-.8 3.4-6.8z" fill="none" stroke="#e2000f" stroke-miterlimit="2.9238" stroke-width=".244" transform="matrix(.26458333 0 0 .26458333 -44.420682 343.72311)"/><path d="m24 7 1.2 2.3h-2.4z" fill="#e2000f" transform="matrix(.26458333 0 0 .26458333 -44.420682 343.72311)"/><path d="m24 7 1.2 2.3h-2.4z" fill="none" stroke="#e2000f" stroke-miterlimit="2.9238" stroke-width=".244" transform="matrix(.26458333 0 0 .26458333 -44.420682 343.72311)"/><path d="m24 8.6 1.2.7h-2.4z" fill="#fff" transform="matrix(.26458333 0 0 .26458333 -44.420682 343.72311)"/><path d="m24 8.6 1.2.7h-2.4z" fill="none" stroke="#e2000f" stroke-miterlimit="2.9238" stroke-width=".244" transform="matrix(.26458333 0 0 .26458333 -44.420682 343.72311)"/><path d="m31.9 2.7-1.5 3.3-1.5-3.3-4.1 8.9h11.2z" fill="#e2000f" transform="matrix(.26458333 0 0 .26458333 -44.420682 343.72311)"/><path d="m31.9 2.7-1.5 3.3-1.5-3.3-4.1 8.9h11.2z" fill="none" stroke="#e2000f" stroke-miterlimit="2.9238" stroke-width=".244" transform="matrix(.26458333 0 0 .26458333 -44.420682 343.72311)"/><path d="m26.2 10.8 2.7-5.9v-2.2l-4.1 8.9z" fill="#fff" transform="matrix(.26458333 0 0 .26458333 -44.420682 343.72311)"/><path d="m26.2 10.8 2.7-5.9v-2.2l-4.1 8.9z" fill="none" stroke="#e2000f" stroke-miterlimit="2.9238" stroke-width=".244" transform="matrix(.26458333 0 0 .26458333 -44.420682 343.72311)"/><path d="m30.4 6v2.2l1.5-3.3v-2.2z" fill="#fff" transform="matrix(.26458333 0 0 .26458333 -44.420682 343.72311)"/><path d="m30.4 6v2.2l1.5-3.3v-2.2z" fill="none" stroke="#e2000f" stroke-miterlimit="2.9238" stroke-width=".244" transform="matrix(.26458333 0 0 .26458333 -44.420682 343.72311)"/><path d="m26.2 10.8h1.2l-.6-1.3z" fill="#ffec00" transform="matrix(.26458333 0 0 .26458333 -44.420682 343.72311)"/><path d="m26.2 10.8h1.2l-.6-1.3z" fill="none" stroke="#e2000f" stroke-miterlimit="2.9238" stroke-width=".244" transform="matrix(.26458333 0 0 .26458333 -44.420682 343.72311)"/><path d="m30.4 8.2 1.5-3.3 2.7 5.9h-3.7l.7-1.5-1.2.7-1.2-.7.7 1.5h-1.4l-1.2-2.3 1.6-3.6z" fill="#ffec00" transform="matrix(.26458333 0 0 .26458333 -44.420682 343.72311)"/><path d="m30.4 8.2 1.5-3.3 2.7 5.9h-3.7l.7-1.5-1.2.7-1.2-.7.7 1.5h-1.4l-1.2-2.3 1.6-3.6z" fill="none" stroke="#e2000f" stroke-miterlimit="2.9238" stroke-width=".244" transform="matrix(.26458333 0 0 .26458333 -44.420682 343.72311)"/><path d="m-34.075474 344.43748s-1.402291 0-1.402291 1.16417c0 1.29646 1.402291 1.19063 1.402291 1.19063h.238125v-2.3548z" fill="#e2000f" stroke-width=".264583"/><path d="m-34.075474 344.43748s-1.402291 0-1.402291 1.16417c0 1.29646 1.402291 1.19063 1.402291 1.19063h.238125v-2.3548zm0 2.14313c-.714375 0-1.164166-.26458-1.164166-.9525" fill="none" stroke="#e2000f" stroke-miterlimit="2.9238" stroke-width=".064558"/><path d="m-34.472349 345.33707h.3175c.02646 0 .05292.0265.05292.0529 0 .0265-.02646.0529-.05292.0529h-.3175c-.02646 0-.05292-.0265-.05292-.0529 0-.0264.02646-.0529.05292-.0529z" fill="#fff" stroke-width=".264583"/><path d="m-34.472349 345.33707h.3175c.02646 0 .05292.0265.05292.0529 0 .0265-.02646.0529-.05292.0529h-.3175c-.02646 0-.05292-.0265-.05292-.0529 0-.0264.02646-.0529.05292-.0529z" fill="none" stroke="#e2000f" stroke-miterlimit="2.9238" stroke-width=".064558"/><path d="m-34.472349 345.94561h.3175c.02646 0 .05292.0265.05292.0529 0 .0265-.02646.0529-.05292.0529h-.3175c-.02646 0-.05292-.0265-.05292-.0529 0-.0265.02646-.0529.05292-.0529z" fill="#fff" stroke-width=".264583"/><path d="m-34.472349 345.94561h.3175c.02646 0 .05292.0265.05292.0529 0 .0265-.02646.0529-.05292.0529h-.3175c-.02646 0-.05292-.0265-.05292-.0529 0-.0265.02646-.0529.05292-.0529z" fill="none" stroke="#e2000f" stroke-miterlimit="2.9238" stroke-width=".064558"/><path clip-rule="evenodd" d="m-34.075474 346.58061v-.52917h-.423333c-.07937 0-.132292-.0529-.132292-.13229 0-.0794.05292-.13229.132292-.13229h.423333v-.34396h-.423333c-.07937 0-.132292-.0529-.132292-.13229 0-.0794.05292-.13229.132292-.13229h.423333v-.50271c-.529166 0-1.164166.23812-1.164166.92604s.423333.97896 1.164166.97896z" fill="#ffec00" fill-rule="evenodd" stroke-width=".264583"/><path d="m-34.075474 346.58061v-.52917h-.423333c-.07937 0-.132292-.0529-.132292-.13229 0-.0794.05292-.13229.132292-.13229h.423333v-.34396h-.423333c-.07937 0-.132292-.0529-.132292-.13229 0-.0794.05292-.13229.132292-.13229h.423333v-.50271c-.529166 0-1.164166.23812-1.164166.92604s.423333.97896 1.164166.97896z" fill="none" stroke="#e2000f" stroke-miterlimit="2.9238" stroke-width=".064558"/><path clip-rule="evenodd" d="m-33.863807 344.43748h-.238125s-1.402292 0-1.402292 1.16417c0 .42333.132292.68792.343959.87313.02646.0265.05292.0529.105833.0529.05292 0 .105833-.0529.105833-.10583 0-.0265 0-.0529-.02646-.0794-.185208-.15875-.291042-.37041-.291042-.71437 0-.68792.635-.92604 1.164167-.92604z" fill="#fff" fill-rule="evenodd" stroke-width=".264583"/><path d="m-33.863807 344.43748h-.238125s-1.402292 0-1.402292 1.16417c0 .42333.132292.68792.343959.87313.02646.0265.05292.0529.105833.0529.05292 0 .105833-.0529.105833-.10583 0-.0265 0-.0529-.02646-.0794-.185208-.15875-.291042-.37041-.291042-.71437 0-.68792.635-.92604 1.164167-.92604z" fill="none" stroke="#e2000f" stroke-miterlimit="2.9238" stroke-width=".064558"/><path clip-rule="evenodd" d="m-33.96964 346.79228h.9525s.820208 0 .820208-.84667c0-.29104-.105833-.50271-.238125-.60854h.185208v-.89959h-.767291s-.740834 0-.740834.84667c0 .26458.07937.42333.185209.55563h-.396875z" fill="#e2000f" fill-rule="evenodd" stroke-width=".264583"/><path d="m-33.96964 346.79228h.9525s.820208 0 .820208-.84667c0-.29104-.105833-.50271-.238125-.60854h.185208v-.89959h-.767291s-.740834 0-.740834.84667c0 .26458.07937.42333.185209.55563h-.396875z" fill="none" stroke="#e2000f" stroke-miterlimit="2.9238" stroke-width=".064558"/><path clip-rule="evenodd" d="m-32.779015 345.36353c-.05292 0-.105834-.0529-.105834-.10584 0-.0529.05292-.10583.105834-.10583h.343958v-.47625h-.582083s-.502709 0-.502709.60854c0 .42333.238125.52917.396875.55563.05292 0 .105834.0529.105834.10583 0 .0529-.05292.10583-.105834.10583h-.608541v.50271h.714375s.582083 0 .582083-.60854c0-.37042-.211667-.52917-.370417-.60854z" fill="#ffec00" fill-rule="evenodd" stroke-width=".264583"/><path d="m-32.779015 345.36353c-.05292 0-.105834-.0529-.105834-.10584 0-.0529.05292-.10583.105834-.10583h.343958v-.47625h-.582083s-.502709 0-.502709.60854c0 .42333.238125.52917.396875.55563.05292 0 .105834.0529.105834.10583 0 .0529-.05292.10583-.105834.10583h-.608541v.50271h.714375s.582083 0 .582083-.60854c0-.37042-.211667-.52917-.370417-.60854z" fill="none" stroke="#e2000f" stroke-miterlimit="2.9238" stroke-width=".064558"/><path d="m-33.731515 346.0779v.50271l-.238125.23812v-.97895h.396875c.15875.15875.343958.21166.47625.23812z" fill="#fff" stroke-width=".264583"/><path d="m-33.731515 346.0779v.50271l-.238125.23812v-.97895h.396875c.15875.15875.343958.21166.47625.23812zm.07937-.3175c.02646.0265.05292.0529.07938.0794" fill="none" stroke="#e2000f" stroke-miterlimit="2.9238" stroke-width=".064558"/><path clip-rule="evenodd" d="m-33.440474 345.65457c-.05292-.0794-.07937-.21167-.07937-.37042 0-.66146.635-.60854.502709-.60854-.105834 0 .582083 0 .582083 0l.185208-.23813h-.767291s-.740834 0-.740834.84667c0 .21167.05292.37042.132292.47625.02646.0265.05292.0529.105833.0529.05292 0 .105834-.0529.105834-.10584 0-.0264-.02646-.0529-.02646-.0529z" fill="#fff" fill-rule="evenodd" stroke-width=".264583"/><path d="m-33.440474 345.65457c-.05292-.0794-.07937-.21167-.07937-.37042 0-.66146.635-.60854.502709-.60854-.105834 0 .582083 0 .582083 0l.185208-.23813h-.767291s-.740834 0-.740834.84667c0 .21167.05292.37042.132292.47625.02646.0265.05292.0529.105833.0529.05292 0 .105834-.0529.105834-.10584 0-.0264-.02646-.0529-.02646-.0529z" fill="none" stroke="#e2000f" stroke-miterlimit="2.9238" stroke-width=".064558"/><path clip-rule="evenodd" d="m-33.043599 348.08873c0-.68791.555625-1.21708 1.217084-1.21708.687916 0 1.217083.55563 1.217083 1.21708 0 .68792-.555625 1.21709-1.217083 1.21709-.661459.0265-1.217084-.52917-1.217084-1.21709zm1.005417 0c0-.13229.105833-.23812.238125-.23812s.238125.10583.238125.23812c0 .1323-.105833.23813-.238125.23813s-.238125-.10583-.238125-.23813z" fill="#e2000f" fill-rule="evenodd" stroke-width=".264583"/><path d="m-33.043599 348.08873c0-.68791.555625-1.21708 1.217084-1.21708.687916 0 1.217083.55563 1.217083 1.21708 0 .68792-.555625 1.21709-1.217083 1.21709-.661459.0265-1.217084-.52917-1.217084-1.21709zm1.005417 0c0-.13229.105833-.23812.238125-.23812s.238125.10583.238125.23812c0 .1323-.105833.23813-.238125.23813s-.238125-.10583-.238125-.23813z" fill="none" stroke="#e2000f" stroke-miterlimit="2.9238" stroke-width=".064558"/><path clip-rule="evenodd" d="m-32.805474 348.08873c0-.55562.449792-1.00541 1.005417-1.00541s1.005416.44979 1.005416 1.00541c0 .55563-.449791 1.00542-1.005416 1.00542s-1.005417-.44979-1.005417-1.00542zm.529167 0c0-.26458.211667-.47625.47625-.47625s.47625.21167.47625.47625c0 .26459-.211667.47625-.47625.47625s-.47625-.21166-.47625-.47625z" fill="#ffec00" fill-rule="evenodd" stroke-width=".264583"/><path d="m-32.805474 348.08873c0-.55562.449792-1.00541 1.005417-1.00541s1.005416.44979 1.005416 1.00541c0 .55563-.449791 1.00542-1.005416 1.00542s-1.005417-.44979-1.005417-1.00542zm.529167 0c0-.26458.211667-.47625.47625-.47625s.47625.21167.47625.47625c0 .26459-.211667.47625-.47625.47625s-.47625-.21166-.47625-.47625z" fill="none" stroke="#e2000f" stroke-miterlimit="2.9238" stroke-width=".064558"/><path clip-rule="evenodd" d="m-32.408599 349.17353c-.582083-.34396-.79375-1.0848-.449791-1.66688.343958-.58208 1.084791-.79375 1.666874-.44979.05292.0265.07937.10583.05292.15875-.02646.0529-.105833.0794-.15875.0529-.47625-.26459-1.084791-.10584-1.349375.37041-.264583.47625-.105833 1.08479.370417 1.34938.05292.0265.07938.10583.05292.15875-.07937.0265-.132292.0529-.185209.0265z" fill="#fff" fill-rule="evenodd" stroke-width=".264583"/><path d="m-32.408599 349.17353c-.582083-.34396-.79375-1.0848-.449791-1.66688.343958-.58208 1.084791-.79375 1.666874-.44979.05292.0265.07937.10583.05292.15875-.02646.0529-.105833.0794-.15875.0529-.47625-.26459-1.084791-.10584-1.349375.37041-.264583.47625-.105833 1.08479.370417 1.34938.05292.0265.07938.10583.05292.15875-.07937.0265-.132292.0529-.185209.0265z" fill="none" stroke="#e2000f" stroke-miterlimit="2.9238" stroke-width=".064558"/><path d="m-32.038182 348.48561c-.05292-.0265-.07937-.10583-.05292-.15875.02646-.0529.105834-.0529.15875-.0265.105834.0529.264584.0265.3175-.0794.05292-.10584.02646-.23813-.07937-.3175-.05292-.0265-.07938-.10584-.05292-.15875.02646-.0529.105833-.0794.15875-.0529.211666.13229.3175.39687.185208.635-.132292.23812-.423333.3175-.635.15875z" fill="#fff" stroke-width=".264583"/><path d="m-32.038182 348.48561c-.05292-.0265-.07937-.10583-.05292-.15875.02646-.0529.105834-.0529.15875-.0265.105834.0529.264584.0265.3175-.0794.05292-.10584.02646-.23813-.07937-.3175-.05292-.0265-.07938-.10584-.05292-.15875.02646-.0529.105833-.0794.15875-.0529.211666.13229.3175.39687.185208.635-.132292.23812-.423333.3175-.635.15875z" fill="none" stroke="#e2000f" stroke-miterlimit="2.9238" stroke-width=".064558"/><path d="m32.6 12.1h-6.9v8.9h6.9l-2.2-4.5z" fill="#e2000f" transform="matrix(.26458333 0 0 .26458333 -44.420682 343.72311)"/><path d="m32.6 12.1h-6.9v8.9h6.9l-2.2-4.5z" fill="none" stroke="#e2000f" stroke-miterlimit="2.9238" stroke-width=".244" transform="matrix(.26458333 0 0 .26458333 -44.420682 343.72311)"/><path d="m27.9 20.1h-1.3v-7.1h1.3v2.5h.9v-2.5h2.5l-1.9 3.4 1.8 3.7h-2.4v-2.7h-.9z" fill="#ffec00" transform="matrix(.26458333 0 0 .26458333 -44.420682 343.72311)"/><path d="m27.9 20.1h-1.3v-7.1h1.3v2.5h.9v-2.5h2.5l-1.9 3.4 1.8 3.7h-2.4v-2.7h-.9z" fill="none" stroke="#e2000f" stroke-miterlimit="2.9238" stroke-width=".244" transform="matrix(.26458333 0 0 .26458333 -44.420682 343.72311)"/><path d="m27.9 13h-1.3v7.1l-.9.9v-8.9h2.7z" fill="#fff" transform="matrix(.26458333 0 0 .26458333 -44.420682 343.72311)"/><path d="m27.9 13h-1.3v7.1l-.9.9v-8.9h2.7z" fill="none" stroke="#e2000f" stroke-miterlimit="2.9238" stroke-width=".244" transform="matrix(.26458333 0 0 .26458333 -44.420682 343.72311)"/><path d="m31.3 13h-2.5v2.5h-.4v-3.4h4.2z" fill="#fff" transform="matrix(.26458333 0 0 .26458333 -44.420682 343.72311)"/><path d="m31.3 13h-2.5v2.5h-.4v-3.4h4.2z" fill="none" stroke="#e2000f" stroke-miterlimit="2.9238" stroke-width=".244" transform="matrix(.26458333 0 0 .26458333 -44.420682 343.72311)"/><path d="m28.8 20.1v-2.7l-.4.4v2.8z" fill="#fff" transform="matrix(.26458333 0 0 .26458333 -44.420682 343.72311)"/><path d="m28.8 20.1v-2.7l-.4.4v2.8z" fill="none" stroke="#e2000f" stroke-miterlimit="2.9238" stroke-width=".244" transform="matrix(.26458333 0 0 .26458333 -44.420682 343.72311)"/><path clip-rule="evenodd" d="m-39.155474 346.92457v2.35479h1.931459l-.555625-.9525s.396875-.15875.396875-.55563c0-.39687-.291042-.84666-.899584-.84666-.635 0-.873125 0-.873125 0zm.635.89958v-.23812h.238125c.05292 0 .105834.0529.105834.10583 0 .0529-.05292.10583-.105834.10583h-.238125z" fill="#e2000f" fill-rule="evenodd" stroke-width=".264583"/><path d="m-39.155474 346.92457v2.35479h1.931459l-.555625-.9525s.396875-.15875.396875-.55563c0-.39687-.291042-.84666-.899584-.84666-.635 0-.873125 0-.873125 0zm.635.89958v-.23812h.238125c.05292 0 .105834.0529.105834.10583 0 .0529-.05292.10583-.105834.10583h-.238125z" fill="none" stroke="#e2000f" stroke-miterlimit="2.9238" stroke-width=".064558"/><path d="m-38.123599 347.16269c-.105833 0-.15875 0-.15875 0h-.635v1.905l-.238125.21167v-2.35479h.873125.185209c.05292 0 .105833.0529.105833.10583 0 .0529-.05292.10583-.105833.10583z" fill="#fff" stroke-width=".264583"/><path d="m-38.123599 347.16269c-.105833 0-.15875 0-.15875 0h-.635v1.905l-.238125.21167v-2.35479h.873125.185209c.05292 0 .105833.0529.105833.10583 0 .0529-.05292.10583-.105833.10583z" fill="none" stroke="#e2000f" stroke-miterlimit="2.9238" stroke-width=".064558"/><path d="m23.2 20.1v-2.7l-.5.4v2.8z" fill="#fff" transform="matrix(.26458333 0 0 .26458333 -44.420682 343.72311)"/><path d="m23.2 20.1v-2.7l-.5.4v2.8z" fill="none" stroke="#e2000f" stroke-miterlimit="2.9238" stroke-width=".244" transform="matrix(.26458333 0 0 .26458333 -44.420682 343.72311)"/><path d="m-38.282349 348.32686h-.238125v.71437h-.396875v-1.87854h.635s.687917-.0265.687917.60854c0 .23813-.291042.42334-.502708.4498l.502708.84666h-.687917z" fill="#ffec00" stroke-width=".264583"/><path d="m-38.282349 348.32686h-.238125v.71437h-.396875v-1.87854h.635s.687917-.0265.687917.60854c0 .23813-.291042.42334-.502708.4498l.502708.84666h-.687917z" fill="none" stroke="#e2000f" stroke-miterlimit="2.9238" stroke-width=".064558"/><path d="m-38.520474 347.82415v-.23812h.238125c.05292 0 .105834.0529.105834.10583 0 .0529-.05292.10583-.105834.10583h-.238125z" fill="#e2000f" stroke-width=".264583"/><path d="m-38.520474 347.82415v-.23812h.238125c.05292 0 .105834.0529.105834.10583 0 .0529-.05292.10583-.105834.10583h-.238125z" fill="none" stroke="#e2000f" stroke-miterlimit="2.9238" stroke-width=".064558"/><path clip-rule="evenodd" d="m-41.377974 348.08873c0-.68791.555625-1.21708 1.217084-1.21708.687916 0 1.217083.55563 1.217083 1.21708 0 .68792-.555625 1.21709-1.217083 1.21709-.661459.0265-1.217084-.52917-1.217084-1.21709zm.978959 0c0-.13229.105833-.23812.238125-.23812.132291 0 .238125.10583.238125.23812 0 .1323-.105834.23813-.238125.23813-.132292 0-.238125-.10583-.238125-.23813z" fill="#e2000f" fill-rule="evenodd" stroke-width=".264583"/><path d="m-41.377974 348.08873c0-.68791.555625-1.21708 1.217084-1.21708.687916 0 1.217083.55563 1.217083 1.21708 0 .68792-.555625 1.21709-1.217083 1.21709-.661459.0265-1.217084-.52917-1.217084-1.21709zm.978959 0c0-.13229.105833-.23812.238125-.23812.132291 0 .238125.10583.238125.23812 0 .1323-.105834.23813-.238125.23813-.132292 0-.238125-.10583-.238125-.23813z" fill="none" stroke="#e2000f" stroke-miterlimit="2.9238" stroke-width=".064558"/><path clip-rule="evenodd" d="m-41.139849 348.08873c0-.55562.449792-1.00541 1.005417-1.00541s1.005417.44979 1.005417 1.00541c0 .55563-.449792 1.00542-1.005417 1.00542s-1.005417-.44979-1.005417-1.00542zm.529167 0c0-.26458.211667-.47625.47625-.47625s.47625.21167.47625.47625c0 .26459-.211667.47625-.47625.47625s-.47625-.21166-.47625-.47625z" fill="#ffec00" fill-rule="evenodd" stroke-width=".264583"/><path d="m-41.139849 348.08873c0-.55562.449792-1.00541 1.005417-1.00541s1.005417.44979 1.005417 1.00541c0 .55563-.449792 1.00542-1.005417 1.00542s-1.005417-.44979-1.005417-1.00542zm.529167 0c0-.26458.211667-.47625.47625-.47625s.47625.21167.47625.47625c0 .26459-.211667.47625-.47625.47625s-.47625-.21166-.47625-.47625z" fill="none" stroke="#e2000f" stroke-miterlimit="2.9238" stroke-width=".064558"/><path clip-rule="evenodd" d="m-40.769432 349.17353c-.582083-.34396-.79375-1.0848-.449792-1.66688.343959-.58208 1.084792-.79375 1.666875-.44979.05292.0265.07937.10583.05292.15875-.02646.0529-.105833.0794-.15875.0529-.47625-.26459-1.084792-.10584-1.349375.37041s-.105833 1.08479.370417 1.34938c.05292.0265.07937.10583.05292.15875-.05292.0265-.132291.0529-.185208.0265z" fill="#fff" fill-rule="evenodd" stroke-width=".264583"/><path d="m-40.769432 349.17353c-.582083-.34396-.79375-1.0848-.449792-1.66688.343959-.58208 1.084792-.79375 1.666875-.44979.05292.0265.07937.10583.05292.15875-.02646.0529-.105833.0794-.15875.0529-.47625-.26459-1.084792-.10584-1.349375.37041s-.105833 1.08479.370417 1.34938c.05292.0265.07937.10583.05292.15875-.05292.0265-.132291.0529-.185208.0265z" fill="none" stroke="#e2000f" stroke-miterlimit="2.9238" stroke-width=".064558"/><path d="m-40.372557 348.48561c-.05292-.0265-.07937-.10583-.05292-.15875.02646-.0529.105834-.0529.15875-.0265.105834.0529.264584.0265.3175-.0794.05292-.10584.02646-.23813-.07937-.3175-.05292-.0265-.07937-.10584-.05292-.15875.02646-.0529.105833-.0794.15875-.0529.211666.13229.3175.39687.185208.635-.132292.23812-.423333.3175-.635.15875z" fill="#fff" stroke-width=".264583"/><g stroke="#e2000f" stroke-miterlimit="2.9238"><path d="m-40.372557 348.48561c-.05292-.0265-.07937-.10583-.05292-.15875.02646-.0529.105834-.0529.15875-.0265.105834.0529.264584.0265.3175-.0794.05292-.10584.02646-.23813-.07937-.3175-.05292-.0265-.07937-.10584-.05292-.15875.02646-.0529.105833-.0794.15875-.0529.211666.13229.3175.39687.185208.635-.132292.23812-.423333.3175-.635.15875z" fill="none" stroke-width=".064558"/><path d="m-30.821099 349.67623v-2.75166h.714375s.9525-.10584.9525.84666c0 .66146-.714375.7673-.714375.7673v.74083z" fill="#e2000f" stroke-width=".03011"/><path d="m-30.582974 347.16269v2.19604l.47625-.1852v-.79375s.714375-.0265.714375-.58209c0-.635-.47625-.635-.47625-.635z" fill="#ffec00" stroke-width=".03011"/><path d="m-30.821099 349.67623v-2.75166h.714375s.3175-.0265.3175.10583c0 .13229-.07937.13229-.07937.13229h-.714375v2.19604z" fill="#fff" stroke-width=".03011"/><path d="m-30.106724 347.58603s.238125-.0529.238125.15875c0 .21166-.238125.15875-.238125.15875z" fill="#e2000f" stroke-width=".03011"/><path d="m43.8 12.1h-3.3v2.5h-.4v-2.5h-3.3v8.9h3.3v-2.7h.4v2.7h3.3z" fill="#e2000f" stroke-width=".1138" transform="matrix(.26458333 0 0 .26458333 -44.420682 343.72311)"/><path d="m42.9 13h-1.5v2.5h-2.2v-2.5h-1.6v7.1h1.6v-2.7h2.2v2.7h1.5z" fill="#ffec00" stroke-width=".1138" transform="matrix(.26458333 0 0 .26458333 -44.420682 343.72311)"/><path d="m39.2 13h-1.6v7.1l-.8.9v-8.9h3.3z" fill="#fff" stroke-width=".1138" transform="matrix(.26458333 0 0 .26458333 -44.420682 343.72311)"/><path d="m40.5 12.1h3.3l-.9.9h-1.5v2.5h-2.2l.9-.9h.4z" fill="#fff" stroke-width=".1138" transform="matrix(.26458333 0 0 .26458333 -44.420682 343.72311)"/><path d="m41.4 20.1v-2.7l-.9.9v2.7z" fill="#fff" stroke-width=".1138" transform="matrix(.26458333 0 0 .26458333 -44.420682 343.72311)"/><path clip-rule="evenodd" d="m-36.245057 349.27936h.9525s.820208 0 .820208-.84667c0-.29104-.105833-.47625-.238125-.60854l.370417-.89958h-.9525s-.740833 0-.740833.84666c0 .26459.07937.4498.185208.55563h-.396875z" fill="#e2000f" fill-rule="evenodd" stroke-width=".03011"/><path clip-rule="evenodd" d="m-35.054432 347.82415c-.05292 0-.105833-.0529-.105833-.10583 0-.0529.05292-.10584.105833-.10584h.185208l.185209-.44979h-.608542s-.502708 0-.502708.60854c0 .42334.238125.52917.396875.55563.05292 0 .105833.0529.105833.10583 0 .0529-.05292.10584-.105833.10584h-.846667l.238125.5027h.714375s.582083 0 .582083-.60854c0-.37041-.211666-.52916-.370416-.60854z" fill="#ffec00" fill-rule="evenodd" stroke-width=".03011"/><path clip-rule="evenodd" d="m-36.245057 348.56498.238125.50271-.238125.21167v-.9525h.396875c.15875.15875.343958.21167.47625.21167z" fill="#fff" fill-rule="evenodd" stroke-width=".03011"/><path clip-rule="evenodd" d="m-35.71589 348.11519c-.05292-.0794-.07937-.21166-.07937-.37041 0-.66146.635-.60855.502708-.60855-.105833 0 .608542 0 .608542 0l.343958-.23812h-.9525s-.740833 0-.740833.84667c0 .21166.05292.37041.132291.47625.02646.0265.05292.0529.105834.0529.05292 0 .105833-.0529.105833-.10583 0 0-.02646-.0265-.02646-.0529z" fill="#fff" fill-rule="evenodd" stroke-width=".03011"/><path d="m8 21h1.8l3.8-8.9h-4.8v1.2l-1.2-1.2-1.1 1.1v-1.1h-4.9l3.8 8.9h1.8l.4-.9z" fill="#e2000f" stroke-width=".1138" transform="matrix(.26458333 0 0 .26458333 -44.420682 343.72311)"/><path d="m-43.653389 347.16269.793747 1.85208" fill="none" stroke-width=".03011"/><path d="m9.3 20.1h-.8l-.9-1.8-.9 1.8h-.8l-3-7.1h2.5v2.9l2.2-2.3 2.2 2.3v-2.9h2.5z" fill="#ffec00" stroke-width=".1138" transform="matrix(.26458333 0 0 .26458333 -44.420682 343.72311)"/><path d="m6.5 12.1h-4.9l3.8 8.9.5-.9-3-7.1h2.5z" fill="#fff" stroke-width=".1138" transform="matrix(.26458333 0 0 .26458333 -44.420682 343.72311)"/><path d="m6.5 13.2 1.1-1.1v1.5l-2.2 2.3z" fill="#fff" stroke-width=".1138" transform="matrix(.26458333 0 0 .26458333 -44.420682 343.72311)"/><path d="m8.8 12.1v1.2l1 2.6v-2.9h2.5l1.3-.9z" fill="#fff" stroke-width=".1138" transform="matrix(.26458333 0 0 .26458333 -44.420682 343.72311)"/><path d="m-38.917349 345.4429h-.05292s-.07937-1.00542-.9525-1.00542c-.899584 0-.978959.71438-.978959 1.24355 0 .5027.211667 1.11125.978959 1.11125h1.005416z" fill="#e2000f" stroke-width=".03011"/><path d="m-39.155474 346.55415h-.767291s-.740834.10583-.740834-.89958c0-1.00542.502709-1.00542.740834-1.00542.264583 0 .714375.26458.714375.76729h-.47625s0-.23812-.264584-.23812c-.264583 0-.211666.23812-.211666.23812v.42334s-.05292.23812.211666.23812h.343959v-.23812h-.105834v-.15875h.502709v.87312z" fill="#ffec00" stroke-width=".03011"/><path clip-rule="evenodd" d="m-39.155474 345.68103.185209-.23813h-.9525v.39688s-.02646.23812.343958.23812v-.23812h-.105833v-.15875z" fill="#fff" fill-rule="evenodd" stroke-width=".03011"/><path d="m-40.504849 346.31603c.02646.0529.02646.13229-.02646.15875-.05292.0265-.132292.0265-.15875-.0265-.15875-.21167-.211667-.50271-.211667-.76729 0-.50271.105834-1.24355.978959-1.24355.132291 0 .264583.0265.343958.0794.05292.0265.07937.10583.05292.15875-.02646.0529-.07938.0794-.15875.0529-.105834-.0529-.185209-.0529-.264584-.0529-.264583 0-.740833 0-.740833 1.00542 0 .29104.07938.5027.185208.635z" fill="#fff" stroke-width=".03011"/><path d="m28.9 11.6h-9.7l1.4-.9 3.4-6.8v-1.8z" fill="#e2000f" stroke-width=".1138" transform="matrix(.26458333 0 0 .26458333 -44.420682 343.72311)"/><path d="m24 3.9 3.4 6.8h-6.8z" fill="#ffec00" stroke-width=".1138" transform="matrix(.26458333 0 0 .26458333 -44.420682 343.72311)"/><path d="m24 2.1-4.8 9.5 1.4-.9 3.4-6.8z" fill="#fff" stroke-width=".1138" transform="matrix(.26458333 0 0 .26458333 -44.420682 343.72311)"/><path d="m24 7 1.2 2.3h-2.4z" fill="#e2000f" stroke-width=".1138" transform="matrix(.26458333 0 0 .26458333 -44.420682 343.72311)"/><path d="m24 8.6 1.2.7h-2.4z" fill="#fff" stroke-width=".1138" transform="matrix(.26458333 0 0 .26458333 -44.420682 343.72311)"/><path d="m31.9 2.7-1.5 3.3-1.5-3.3-4.1 8.9h11.2z" fill="#e2000f" stroke-width=".1138" transform="matrix(.26458333 0 0 .26458333 -44.420682 343.72311)"/><path d="m26.2 10.7 2.7-5.8v-2.2l-4.1 8.9z" fill="#fff" stroke-width=".1138" transform="matrix(.26458333 0 0 .26458333 -44.420682 343.72311)"/><path d="m30.4 6v2.2l1.5-3.3v-2.2z" fill="#fff" stroke-width=".1138" transform="matrix(.26458333 0 0 .26458333 -44.420682 343.72311)"/><path d="m26.2 10.7h1.2l-.6-1.2z" fill="#ffec00" stroke-width=".1138" transform="matrix(.26458333 0 0 .26458333 -44.420682 343.72311)"/><path d="m30.4 8.2 1.5-3.3 2.7 5.8h-3.7l.7-1.4-1.2.7-1.2-.7.7 1.4h-1.4l-1.2-2.2 1.6-3.6z" fill="#ffec00" stroke-width=".1138" transform="matrix(.26458333 0 0 .26458333 -44.420682 343.72311)"/><path d="m-34.075474 344.43748s-1.402291 0-1.402291 1.16417c0 1.29646 1.402291 1.19063 1.402291 1.19063h.238125v-2.3548z" fill="#e2000f" stroke-width=".03011"/><path d="m-34.075474 346.55415c-.714375 0-1.164166-.26458-1.164166-.9525" fill="none" stroke-width=".03011"/><path d="m-34.472349 345.33707h.3175c.02646 0 .05292.0265.05292.0529 0 .0265-.02646.0529-.05292.0529h-.3175c-.02646 0-.05292-.0265-.05292-.0529 0-.0264.02646-.0529.05292-.0529z" fill="#fff" stroke-width=".03011"/><path d="m-34.472349 345.94561h.3175c.02646 0 .05292.0265.05292.0529 0 .0265-.02646.0529-.05292.0529h-.3175c-.02646 0-.05292-.0265-.05292-.0529 0-.0265.02646-.0529.05292-.0529z" fill="#fff" stroke-width=".03011"/><path clip-rule="evenodd" d="m-34.075474 346.55415v-.50271h-.423333c-.07937 0-.132292-.0529-.132292-.13229 0-.0794.05292-.13229.132292-.13229h.423333v-.34396h-.423333c-.07937 0-.132292-.0529-.132292-.13229 0-.0794.05292-.13229.132292-.13229h.423333v-.50271c-.529166 0-1.164166.23812-1.164166.92604-.02646.71438.423333.9525 1.164166.9525z" fill="#ffec00" fill-rule="evenodd" stroke-width=".03011"/><path clip-rule="evenodd" d="m-33.863807 344.43748h-.238125s-1.402292 0-1.402292 1.16417c0 .42333.132292.68792.343959.87313.02646.0265.05292.0529.105833.0529.05292 0 .105833-.0529.105833-.10583 0-.0265 0-.0529-.02646-.0794-.185208-.15875-.291042-.37041-.291042-.71437 0-.68792.635-.92604 1.164167-.92604z" fill="#fff" fill-rule="evenodd" stroke-width=".03011"/><path clip-rule="evenodd" d="m-33.96964 346.79228h.9525s.820208 0 .820208-.84667c0-.29104-.105833-.47625-.238125-.60854h.185208v-.89959h-.767291s-.740834 0-.740834.84667c0 .26458.07937.44979.185209.55563h-.396875z" fill="#e2000f" fill-rule="evenodd" stroke-width=".03011"/><path clip-rule="evenodd" d="m-32.779015 345.36353c-.05292 0-.105834-.0529-.105834-.10584 0-.0529.05292-.10583.105834-.10583h.343958v-.47625h-.582083s-.502709 0-.502709.60854c0 .42333.238125.52917.396875.55563.05292 0 .105834.0529.105834.10583 0 .0529-.05292.10583-.105834.10583h-.608541v.50271h.714375s.582083 0 .582083-.60854c0-.37042-.211667-.52917-.370417-.60854z" fill="#ffec00" fill-rule="evenodd" stroke-width=".03011"/><path d="m-33.731515 346.0779v.50271l-.238125.23812v-.97895h.396875c.15875.15875.343958.21166.47625.23812z" fill="#fff" stroke-width=".03011"/><path d="m-33.65214 345.7604c.02646.0265.05292.0529.07938.0794" fill="none" stroke-width=".03011"/><path clip-rule="evenodd" d="m-33.440474 345.65457c-.05292-.0794-.07937-.21167-.07937-.37042 0-.66146.635-.60854.502709-.60854-.105834 0 .582083 0 .582083 0l.185208-.23813h-.767291s-.740834 0-.740834.84667c0 .21167.05292.37042.132292.47625.02646.0265.05292.0529.105833.0529.05292 0 .105834-.0529.105834-.10584 0-.0264-.02646-.0529-.02646-.0529z" fill="#fff" fill-rule="evenodd" stroke-width=".03011"/></g><path clip-rule="evenodd" d="m-33.043599 348.08873c0-.68791.555625-1.21708 1.217084-1.21708.687916 0 1.217083.55563 1.217083 1.21708 0 .68792-.555625 1.21709-1.217083 1.21709-.661459.0265-1.217084-.52917-1.217084-1.21709zm1.005417 0c0-.13229.105833-.23812.238125-.23812s.238125.10583.238125.23812c0 .1323-.105833.23813-.238125.23813s-.238125-.10583-.238125-.23813z" fill="#e2000f" fill-rule="evenodd" stroke-width=".264583"/><path d="m-33.043599 348.08873c0-.68791.555625-1.21708 1.217084-1.21708.687916 0 1.217083.55563 1.217083 1.21708 0 .68792-.555625 1.21709-1.217083 1.21709-.661459.0265-1.217084-.52917-1.217084-1.21709zm1.005417 0c0-.13229.105833-.23812.238125-.23812s.238125.10583.238125.23812c0 .1323-.105833.23813-.238125.23813s-.238125-.10583-.238125-.23813z" fill="none" stroke="#e2000f" stroke-miterlimit="2.9238" stroke-width=".03011"/><path clip-rule="evenodd" d="m-32.805474 348.08873c0-.55562.449792-1.00541 1.005417-1.00541s1.005416.44979 1.005416 1.00541c0 .55563-.449791 1.00542-1.005416 1.00542s-1.005417-.44979-1.005417-1.00542zm.529167 0c0-.26458.211667-.47625.47625-.47625s.47625.21167.47625.47625c0 .26459-.211667.47625-.47625.47625s-.47625-.21166-.47625-.47625z" fill="#ffec00" fill-rule="evenodd" stroke-width=".264583"/><path d="m-32.805474 348.08873c0-.55562.449792-1.00541 1.005417-1.00541s1.005416.44979 1.005416 1.00541c0 .55563-.449791 1.00542-1.005416 1.00542s-1.005417-.44979-1.005417-1.00542zm.529167 0c0-.26458.211667-.47625.47625-.47625s.47625.21167.47625.47625c0 .26459-.211667.47625-.47625.47625s-.47625-.21166-.47625-.47625z" fill="none" stroke="#e2000f" stroke-miterlimit="2.9238" stroke-width=".03011"/><path d="m-32.408599 349.14707c-.582083-.34396-.79375-1.08479-.449791-1.66688.343958-.58208 1.084791-.79375 1.666874-.44979.05292.0265.07937.10583.05292.15875-.02646.0529-.105833.0794-.15875.0529-.47625-.26459-1.084791-.10584-1.349375.37041-.264583.47625-.105833 1.0848.370417 1.34938.05292.0265.07938.10583.05292.15875-.07937.0529-.132292.0794-.185209.0265z" style="clip-rule:evenodd;fill:#fff;fill-rule:evenodd;stroke:#e2000f;stroke-width:.03011;stroke-miterlimit:2.9238"/><path d="m-32.038182 348.48561c-.05292-.0265-.07937-.10583-.05292-.15875.02646-.0529.105834-.0529.15875-.0265.105834.0529.264584.0265.3175-.0794.05292-.10584.02646-.23813-.07937-.3175-.05292-.0265-.07938-.10584-.05292-.15875.02646-.0529.105833-.0794.15875-.0529.211666.13229.3175.39687.185208.635-.132292.23812-.423333.3175-.635.15875z" fill="#fff" stroke="#e2000f" stroke-miterlimit="2.9238" stroke-width=".03011"/><path d="m32.6 12.1h-6.9v8.9h6.9l-2.2-4.5z" fill="#e2000f" stroke="#e2000f" stroke-miterlimit="2.9238" stroke-width=".1138" transform="matrix(.26458333 0 0 .26458333 -44.420682 343.72311)"/><path d="m27.9 20.1h-1.3v-7.1h1.3v2.5h.9v-2.5h2.5l-1.9 3.4 1.8 3.7h-2.4v-2.7h-.9z" fill="#ffec00" stroke="#e2000f" stroke-miterlimit="2.9238" stroke-width=".1138" transform="matrix(.26458333 0 0 .26458333 -44.420682 343.72311)"/><path d="m27.9 13h-1.3v7.1l-.9.9v-8.9h2.7z" fill="#fff" stroke="#e2000f" stroke-miterlimit="2.9238" stroke-width=".1138" transform="matrix(.26458333 0 0 .26458333 -44.420682 343.72311)"/><path d="m31.3 13h-2.5v2.5h-.4v-3.4h4.2z" fill="#fff" stroke="#e2000f" stroke-miterlimit="2.9238" stroke-width=".1138" transform="matrix(.26458333 0 0 .26458333 -44.420682 343.72311)"/><path d="m28.8 20.1v-2.7l-.4.4v2.8z" fill="#fff" stroke="#e2000f" stroke-miterlimit="2.9238" stroke-width=".1138" transform="matrix(.26458333 0 0 .26458333 -44.420682 343.72311)"/><path clip-rule="evenodd" d="m-39.155474 346.92457v2.35479h1.931459l-.555625-.9525s.396875-.15875.396875-.55563c0-.39687-.291042-.84666-.899584-.84666-.635 0-.873125 0-.873125 0zm.635.89958v-.23812h.238125c.05292 0 .105834.0529.105834.10583 0 .0529-.05292.10583-.105834.10583h-.238125z" fill="#e2000f" fill-rule="evenodd" stroke-width=".264583"/><path d="m-39.155474 346.92457v2.35479h1.931459l-.555625-.9525s.396875-.15875.396875-.55563c0-.39687-.291042-.84666-.899584-.84666-.635 0-.873125 0-.873125 0zm.635.89958v-.23812h.238125c.05292 0 .105834.0529.105834.10583 0 .0529-.05292.10583-.105834.10583h-.238125z" fill="none" stroke="#e2000f" stroke-miterlimit="2.9238" stroke-width=".03011"/><path d="m-38.123599 347.16269c-.07937-.0265-.15875-.0265-.15875-.0265h-.635v1.905l-.238125.23813v-2.35479h.873125.185209c.05292 0 .105833.0529.105833.10583 0 .0529-.05292.10583-.105833.10583z" fill="#fff" stroke="#e2000f" stroke-miterlimit="2.9238" stroke-width=".03011"/><path d="m23.2 20.1v-2.7l-.5.4v2.8z" fill="#fff" stroke="#e2000f" stroke-miterlimit="2.9238" stroke-width=".1138" transform="matrix(.26458333 0 0 .26458333 -44.420682 343.72311)"/><path d="m-38.282349 348.32686h-.238125v.71437h-.396875v-1.87854h.635s.687917-.0265.687917.60854c0 .23813-.291042.42334-.502708.4498l.502708.84666h-.687917z" fill="#ffec00" stroke="#e2000f" stroke-miterlimit="2.9238" stroke-width=".03011"/><path d="m-38.520474 347.82415v-.23812h.238125c.05292 0 .105834.0529.105834.10583 0 .0529-.05292.10583-.105834.10583h-.238125z" fill="#e2000f" stroke="#e2000f" stroke-miterlimit="2.9238" stroke-width=".03011"/><path clip-rule="evenodd" d="m-41.377974 348.08873c0-.68791.555625-1.21708 1.217084-1.21708.687916 0 1.217083.55563 1.217083 1.21708 0 .68792-.555625 1.21709-1.217083 1.21709-.661459.0265-1.217084-.52917-1.217084-1.21709zm.978959 0c0-.13229.105833-.23812.238125-.23812.132291 0 .238125.10583.238125.23812 0 .1323-.105834.23813-.238125.23813-.132292 0-.238125-.10583-.238125-.23813z" fill="#e2000f" fill-rule="evenodd" stroke-width=".264583"/><path d="m-41.377974 348.08873c0-.68791.555625-1.21708 1.217084-1.21708.687916 0 1.217083.55563 1.217083 1.21708 0 .68792-.555625 1.21709-1.217083 1.21709-.661459.0265-1.217084-.52917-1.217084-1.21709zm.978959 0c0-.13229.105833-.23812.238125-.23812.132291 0 .238125.10583.238125.23812 0 .1323-.105834.23813-.238125.23813-.132292 0-.238125-.10583-.238125-.23813z" fill="none" stroke="#e2000f" stroke-miterlimit="2.9238" stroke-width=".03011"/><path clip-rule="evenodd" d="m-41.139849 348.08873c0-.55562.449792-1.00541 1.005417-1.00541s1.005417.44979 1.005417 1.00541c0 .55563-.449792 1.00542-1.005417 1.00542s-1.005417-.44979-1.005417-1.00542zm.529167 0c0-.26458.211667-.47625.47625-.47625s.47625.21167.47625.47625c0 .26459-.211667.47625-.47625.47625s-.47625-.21166-.47625-.47625z" fill="#ffec00" fill-rule="evenodd" stroke-width=".264583"/><path d="m-41.139849 348.08873c0-.55562.449792-1.00541 1.005417-1.00541s1.005417.44979 1.005417 1.00541c0 .55563-.449792 1.00542-1.005417 1.00542s-1.005417-.44979-1.005417-1.00542zm.529167 0c0-.26458.211667-.47625.47625-.47625s.47625.21167.47625.47625c0 .26459-.211667.47625-.47625.47625s-.47625-.21166-.47625-.47625z" fill="none" stroke="#e2000f" stroke-miterlimit="2.9238" stroke-width=".03011"/><path d="m-40.769432 349.14707c-.582083-.34396-.79375-1.08479-.449792-1.66688.343959-.58208 1.084792-.79375 1.666875-.44979.05292.0265.07937.10583.05292.15875-.02646.0529-.105833.0794-.15875.0529-.47625-.26459-1.084792-.10584-1.349375.37041s-.105833 1.0848.370417 1.34938c.05292.0265.07937.10583.05292.15875-.05292.0529-.132291.0794-.185208.0265z" style="clip-rule:evenodd;fill:#fff;fill-rule:evenodd;stroke:#e2000f;stroke-width:.03011;stroke-miterlimit:2.9238"/><path d="m-40.372557 348.48561c-.05292-.0265-.07937-.10583-.05292-.15875.02646-.0529.105834-.0529.15875-.0265.105834.0529.264584.0265.3175-.0794.05292-.10584.02646-.23813-.07937-.3175-.05292-.0265-.07937-.10584-.05292-.15875.02646-.0529.105833-.0794.15875-.0529.211666.13229.3175.39687.185208.635-.132292.23812-.423333.3175-.635.15875z" fill="#fff" stroke="#e2000f" stroke-miterlimit="2.9238" stroke-width=".03011"/><path d="m13.3 12.4.2-.3h-.4v.3z" fill="#e2000f" transform="matrix(.26458333 0 0 .26458333 -44.420682 343.72311)"/><path d="m7.7 12.3-.2-.1-.1.1.2.1z" fill="#e2000f" transform="matrix(.26458333 0 0 .26458333 -44.420682 343.72311)"/><path d="m6.4 12.1h-.1-.4v.3z" fill="#e2000f" transform="matrix(.26458333 0 0 .26458333 -44.420682 343.72311)"/><path d="m24.7 17.8 1 .3-.4-1.1z" fill="#e2000f" transform="matrix(.26458333 0 0 .26458333 -44.420682 343.72311)"/><path d="m25.3 17.3.3.7v-.8z" fill="#fff" transform="matrix(.26458333 0 0 .26458333 -44.420682 343.72311)"/><path d="m-29.101307 347.18915c0-.26458.211666-.47625.47625-.47625.264583 0 .47625.21167.47625.47625s-.211667.47625-.47625.47625c-.264584 0-.47625-.21167-.47625-.47625z" fill="#1a1a18" stroke-width=".264583"/><path d="m-28.598599 347.58603c-.211667 0-.396875-.1323-.396875-.39688s.185208-.39687.396875-.39687.396875.13229.396875.39687-.211667.39688-.396875.39688zm0-.68792c-.15875 0-.291042.13229-.291042.29104 0 .18521.132292.29104.291042.29104.15875 0 .264583-.13229.264583-.29104 0-.18521-.132291-.29104-.264583-.29104zm-.07937.50271h-.07938v-.42334h.15875c.105833 0 .15875.0265.15875.1323 0 .0794-.05292.10583-.105833.10583l.105833.18521h-.105833l-.105834-.18521h-.05292v.18521zm.07937-.23813c.05292 0 .05292 0 .05292-.0529s-.05292-.0529-.07938-.0529h-.05292v.10583z" fill="#fff" stroke-width=".264583"/></g></svg>